<svg xmlns="http://www.w3.org/2000/svg" width="12.035" height="17.117" viewBox="0 0 12.035 17.117"><defs><style>.a{fill:#0091d5;}</style></defs><g transform="translate(-76)"><g transform="translate(76)"><path class="a" d="M82.018,0A6.019,6.019,0,0,0,76.9,9.182l4.777,7.7a.5.5,0,0,0,.426.237h0a.5.5,0,0,0,.426-.244L87.187,9.1A6.019,6.019,0,0,0,82.018,0Zm4.308,8.586-4.232,7.066-4.343-7a5.018,5.018,0,1,1,8.575-.068Z" transform="translate(-76)"/></g><g transform="translate(79.009 3.009)"><path class="a" d="M169.009,90a3.009,3.009,0,1,0,3.009,3.009A3.012,3.012,0,0,0,169.009,90Zm0,5.021a2.013,2.013,0,1,1,2.009-2.013A2.014,2.014,0,0,1,169.009,95.021Z" transform="translate(-166 -90)"/></g></g></svg>