<svg xmlns="http://www.w3.org/2000/svg" xmlns:xlink="http://www.w3.org/1999/xlink" width="18.056" height="26.195" viewBox="0 0 18.056 26.195"><defs><style>.a{fill:#0091d5;}.b{clip-path:url(#a);}</style><clipPath id="a"><rect class="a" width="18.056" height="26.195" transform="translate(0 80)"/></clipPath></defs><g class="b" transform="translate(0 -80)"><g transform="translate(0 84.07)"><path class="a" d="M9.028,0a9.028,9.028,0,1,0,9.028,9.028A9.038,9.038,0,0,0,9.028,0Zm0,16.868a7.84,7.84,0,1,1,7.84-7.84A7.849,7.849,0,0,1,9.028,16.868Z"/><path class="a" d="M437.928,172.832v-3.373a1.709,1.709,0,0,1,.833.664.594.594,0,1,0,.992-.653,2.892,2.892,0,0,0-1.826-1.243v-.944a.594.594,0,1,0-1.188,0v.942a2.9,2.9,0,0,0,0,5.674v3.373a1.709,1.709,0,0,1-.833-.664.594.594,0,1,0-.992.653,2.892,2.892,0,0,0,1.826,1.243v.944a.594.594,0,0,0,1.188,0v-.942a2.9,2.9,0,0,0,0-5.674Zm-2.306-1.771a1.711,1.711,0,0,1,1.118-1.6v3.2A1.711,1.711,0,0,1,435.622,171.062Zm2.306,6.209v-3.2a1.707,1.707,0,0,1,0,3.2Z" transform="translate(-428.306 -164.337)"/></g></g></svg>