<svg xmlns="http://www.w3.org/2000/svg" width="27.417" height="17.135" viewBox="0 0 27.417 17.135"><defs><style>.a{fill:#0091d5;}</style></defs><g transform="translate(-274 -224.193)"><g transform="translate(274 224.193)"><g transform="translate(3.997 1.213)"><path class="a" d="M143.027,209.845c-.538-1.122-2.463-2.679-4.323-4.183-1.037-.839-2.017-1.631-2.642-2.256a.571.571,0,0,0-.6-.134c-.385.139-.623.247-.81.33a1.889,1.889,0,0,1-.767.21.571.571,0,0,0-.418.25,1.747,1.747,0,0,1-2.2.917c-.178-.059-.21-.136-.227-.209a3.776,3.776,0,0,1,1.262-2.449c1.856-1.857,2.814-2.322,4.836-1.419,2.294,1.026,4.592,1.829,4.615,1.837a.572.572,0,1,0,.376-1.079c-.023-.008-2.276-.8-4.524-1.8-2.619-1.171-4.057-.4-6.109,1.654-.781.781-1.843,2.362-1.568,3.522a1.413,1.413,0,0,0,.981,1.029,2.858,2.858,0,0,0,3.355-1.149,2.885,2.885,0,0,0,.858-.272c.107-.048.233-.1.4-.171.653.613,1.535,1.327,2.464,2.078,1.679,1.358,3.584,2.9,4.012,3.789a.669.669,0,0,1-.17.858.629.629,0,0,1-.7.138.571.571,0,0,0-.892.531.69.69,0,0,1-.438.643.877.877,0,0,1-.89.021.571.571,0,0,0-.958.364,1.085,1.085,0,0,1-.674.875.6.6,0,0,1-.656-.1.578.578,0,0,0-.522-.133.57.57,0,0,0-.4.36c-.022.057-.071.194-.605.194a3.289,3.289,0,0,1-1.4-.479c-.4-.264-2.915-2.14-5.087-3.958-.305-.257-.833-.808-1.3-1.294-.414-.432-.792-.824-.986-.988a.571.571,0,0,0-.738.873c.177.15.52.512.9.906.51.532,1.036,1.083,1.39,1.38,2.127,1.781,4.684,3.7,5.193,4.038a4.382,4.382,0,0,0,2.028.665,1.966,1.966,0,0,0,1.3-.382,1.778,1.778,0,0,0,1.3-.014,2.25,2.25,0,0,0,1.189-1.1,2.209,2.209,0,0,0,1.434-.207,1.938,1.938,0,0,0,.954-1,1.868,1.868,0,0,0,1.31-.47A1.816,1.816,0,0,0,143.027,209.845Z" transform="translate(-125.376 -199.309)"/></g><g transform="translate(5.712 2.284)"><path class="a" d="M184.877,232.911h-5.141a.571.571,0,1,0,0,1.142h5.141a.571.571,0,1,0,0-1.142Z" transform="translate(-179.166 -232.911)"/></g><g transform="translate(20.606 10.28)"><path class="a" d="M649.077,483.965a.57.57,0,0,0-.793-.155l-1.67,1.122a.571.571,0,0,0,.638.948l1.67-1.122A.572.572,0,0,0,649.077,483.965Z" transform="translate(-646.362 -483.712)"/></g><g transform="translate(15.423 9.709)"><path class="a" d="M488.129,469.357c-.409-.322-2.238-2.194-3.369-3.373a.571.571,0,0,0-.825.79c.294.306,2.883,3.006,3.485,3.481a.569.569,0,0,0,.353.122.577.577,0,0,0,.45-.218A.571.571,0,0,0,488.129,469.357Z" transform="translate(-483.776 -465.807)"/></g><g transform="translate(13.709 11.424)"><path class="a" d="M433.793,522.571c-.684-.547-2.4-2.374-2.792-2.8a.572.572,0,0,0-.842.773c.021.022,2.072,2.237,2.92,2.915a.571.571,0,0,0,.714-.892Z" transform="translate(-430.009 -519.59)"/></g><g transform="translate(11.424 12.565)"><path class="a" d="M362.145,558.369c-.815-.686-2.481-2.461-2.807-2.809a.571.571,0,0,0-.835.78c.468.5,2.063,2.192,2.905,2.9a.572.572,0,1,0,.737-.874Z" transform="translate(-358.35 -555.378)"/></g><g transform="translate(0 0)"><path class="a" d="M6.676,162.554c-.979-.928-4.894-1.228-6.071-1.3a.571.571,0,0,0-.605.57v10.281a.571.571,0,0,0,.571.571H4a.571.571,0,0,0,.543-.394c.083-.256,2.052-6.3,2.311-9.267A.568.568,0,0,0,6.676,162.554Zm-3.095,8.982H1.142v-9.1a17.353,17.353,0,0,1,4.536.81A59.937,59.937,0,0,1,3.581,171.537Z" transform="translate(0 -161.256)"/></g><g transform="translate(19.441 1.142)"><path class="a" d="M617.209,197.078a17.826,17.826,0,0,0-7.077,1.2.568.568,0,0,0-.3.355.576.576,0,0,0,.063.464,75.948,75.948,0,0,1,3.342,8.989.571.571,0,0,0,.551.419h3.427a.571.571,0,0,0,.571-.571V197.649A.571.571,0,0,0,617.209,197.078Zm-.571,10.281H614.21c-.541-1.764-2.141-6.363-3.033-8.264a18.605,18.605,0,0,1,5.462-.868Z" transform="translate(-609.804 -197.078)"/></g></g></g></svg>