<svg xmlns="http://www.w3.org/2000/svg" viewBox="0 0 161.832 36">
  <defs>
    <style>
      .cls-1, .cls-2 {
        fill: #fff;
      }

      .cls-1 {
        fill-rule: evenodd;
      }
    </style>
  </defs>
  <g id="Logo" transform="translate(0)">
    <path id="Path_79" data-name="Path 79" class="cls-1" d="M7.29,13.065a12.9,12.9,0,0,0,7.065,5.551A16.161,16.161,0,0,0,18,19.346a15.481,15.481,0,0,0,3.589-.112A9.637,9.637,0,0,0,23.1,16.318a10.635,10.635,0,0,0,.617-3.533,11.062,11.062,0,0,0-3.2-7.85,11.269,11.269,0,0,0-7.794-3.308,10.464,10.464,0,0,0-3.981.729A11.811,11.811,0,0,0,5.5,4.262a13.806,13.806,0,0,0,1.794,8.8M12.673,0A12.636,12.636,0,1,1,3.7,3.7,12.676,12.676,0,0,1,12.673,0Z"/>
    <path id="Path_80" data-name="Path 80" class="cls-1" d="M213.237,15.931a6.708,6.708,0,0,0-6.729-6.449,6.77,6.77,0,0,0-4.879,1.907,6.372,6.372,0,0,0-.168,9.252,6.894,6.894,0,0,0,9.7.168,6.262,6.262,0,0,0,2.075-4.879m2.355.168a8.038,8.038,0,0,1-2.748,6.28,9.342,9.342,0,0,1-6.729,2.523,9.146,9.146,0,0,1-6.336-2.636,8.311,8.311,0,0,1-2.579-6.112A8.426,8.426,0,0,1,200,9.819a9.284,9.284,0,0,1,13.178.449V1.8h2.355V16.1Z" transform="translate(-86.621 -0.791)"/>
    <path id="Path_81" data-name="Path 81" class="cls-2" d="M212.842,12.756a7.218,7.218,0,0,1,.561,2.692h0a6.18,6.18,0,0,1-.5,2.86,6.922,6.922,0,0,1-1.682,2.467,8.282,8.282,0,0,1-2.523,1.682,7.359,7.359,0,0,1-2.972.449h0a6.943,6.943,0,0,1-5.047-2.3h0a7.866,7.866,0,0,1-1.57-2.355,7.353,7.353,0,0,1,.056-5.5,7.362,7.362,0,0,1,1.682-2.3,7.453,7.453,0,0,1,2.411-1.57,8.077,8.077,0,0,1,2.86-.5h0a7.772,7.772,0,0,1,2.8.5,6.934,6.934,0,0,1,2.355,1.57,7,7,0,0,1,1.57,2.3m-.617,2.692a5.059,5.059,0,0,0-.5-2.243,5.405,5.405,0,0,0-1.346-1.907,5.689,5.689,0,0,0-1.963-1.29,6.293,6.293,0,0,0-2.355-.449h0a6.8,6.8,0,0,0-2.411.393,6.5,6.5,0,0,0-2.019,1.29,6.436,6.436,0,0,0-1.4,1.907,5.964,5.964,0,0,0-.5,2.243h0a5.9,5.9,0,0,0,.393,2.243A6.267,6.267,0,0,0,201.4,19.6h0a6.01,6.01,0,0,0,1.963,1.4,5.3,5.3,0,0,0,2.3.5h0a5.776,5.776,0,0,0,4.542-1.794,5.673,5.673,0,0,0,1.4-2.075,3,3,0,0,0,.617-2.187Zm1.794,3.308a7.309,7.309,0,0,0,.617-3.14h0V1.934h-1.178v9.421l-1.065-1.121a8.483,8.483,0,0,0-2.748-2.019,9.258,9.258,0,0,0-3.364-.785h0a8.5,8.5,0,0,0-3.365.561,8.912,8.912,0,0,0-2.86,1.85,9.714,9.714,0,0,0-1.963,2.692,7.4,7.4,0,0,0-.617,3.2,7.965,7.965,0,0,0,.617,3.084,8.807,8.807,0,0,0,1.794,2.636,7.818,7.818,0,0,0,2.692,1.794,10.159,10.159,0,0,0,3.2.673h0a8.333,8.333,0,0,0,3.364-.561,8.562,8.562,0,0,0,2.916-1.85A9.184,9.184,0,0,0,214.02,18.756Zm1.794-3.14a8.789,8.789,0,0,1-.673,3.645,9.645,9.645,0,0,1-2.243,3.084,9.925,9.925,0,0,1-3.308,2.075,9.568,9.568,0,0,1-3.813.617h0a10.809,10.809,0,0,1-3.645-.729,9.963,9.963,0,0,1-3.084-2.075,9.131,9.131,0,0,1-2.075-3.028,9.424,9.424,0,0,1-.673-3.533,8.822,8.822,0,0,1,.729-3.645,9.072,9.072,0,0,1,2.243-3.084,9.706,9.706,0,0,1,3.252-2.075,9.568,9.568,0,0,1,3.813-.617h0a9.821,9.821,0,0,1,5.944,2.187V.7h3.589v.617l-.056,14.3Z" transform="translate(-86.225 -0.307)"/>
    <path id="Path_82" data-name="Path 82" class="cls-1" d="M243.734,14.736a4.794,4.794,0,0,0-2.692.841,5.43,5.43,0,0,0-1.4,1.4,5.013,5.013,0,0,0-.617,2.579V29.652H236.5V12.774h2.243v2.411a4.755,4.755,0,0,1,2.243-2.075,5.331,5.331,0,0,1,2.748-.617v2.243Z" transform="translate(-103.883 -5.484)"/>
    <path id="Path_83" data-name="Path 83" class="cls-2" d="M241.568,13.906a5.955,5.955,0,0,1,1.065-.224V12.616a2.815,2.815,0,0,0-.673.112,5.467,5.467,0,0,0-1.234.449h0a4.4,4.4,0,0,0-1.122.785,3.928,3.928,0,0,0-.841,1.065L237.643,17.1v-4.15h-1.009V28.542h1.29V19.065a6.741,6.741,0,0,1,.168-1.57,3.873,3.873,0,0,1,.5-1.29h0a3.554,3.554,0,0,1,.617-.729c.224-.224.561-.5.9-.785a3.693,3.693,0,0,1,1.458-.785m1.682.953a4.82,4.82,0,0,0-1.346.224,2.847,2.847,0,0,0-1.009.5c-.336.224-.617.5-.841.673a3.218,3.218,0,0,0-.449.5h0a3.75,3.75,0,0,0-.392.953,5.025,5.025,0,0,0-.112,1.346V29.719h-3.7v-18h3.477v1.234a5.635,5.635,0,0,1,1.346-.9h0a8.282,8.282,0,0,1,1.514-.561,4.838,4.838,0,0,1,1.57-.112h.561v3.364Z" transform="translate(-103.4 -4.99)"/>
    <path id="Path_84" data-name="Path 84" class="cls-1" d="M178.313,29.515h-2.355V19.7a4.761,4.761,0,0,0-1.682-3.645,5.614,5.614,0,0,0-3.869-1.514,5.421,5.421,0,0,0-3.869,1.514,4.762,4.762,0,0,0-1.682,3.645v9.813H162.5V19.926a7.192,7.192,0,0,1,2.243-5.439,8.427,8.427,0,0,1,11.327,0,7.192,7.192,0,0,1,2.243,5.439v9.589Z" transform="translate(-71.378 -5.403)"/>
    <path id="Path_85" data-name="Path 85" class="cls-2" d="M176.092,28.459h1.178V19.487a7.061,7.061,0,0,0-.5-2.748,6.053,6.053,0,0,0-1.57-2.243,7.237,7.237,0,0,0-5.215-2.019,8.165,8.165,0,0,0-2.916.5,7.056,7.056,0,0,0-2.355,1.514,6.783,6.783,0,0,0-1.57,2.243,7.262,7.262,0,0,0-.5,2.748v8.972h1.178v-9.2a6.154,6.154,0,0,1,.449-2.243,7.243,7.243,0,0,1,1.4-1.907,6.194,6.194,0,0,1,6.617-1.29,5.688,5.688,0,0,1,1.963,1.29,5.8,5.8,0,0,1,1.4,1.907,5.021,5.021,0,0,1,.449,2.243v9.2Zm1.738,1.234h-2.972V19.263a4.569,4.569,0,0,0-.336-1.738A4.612,4.612,0,0,0,173.4,16.01,5.193,5.193,0,0,0,168.073,15a5.583,5.583,0,0,0-1.626,1.009,4.835,4.835,0,0,0-1.121,1.514,4.368,4.368,0,0,0-.336,1.738v10.43H161.4V19.487a8.834,8.834,0,0,1,.617-3.252,7.06,7.06,0,0,1,1.85-2.636,8.434,8.434,0,0,1,2.748-1.738,9.214,9.214,0,0,1,3.364-.561,8.431,8.431,0,0,1,7.907,4.991,8.834,8.834,0,0,1,.617,3.252v10.15Z" transform="translate(-70.895 -4.964)"/>
    <path id="Path_86" data-name="Path 86" class="cls-1" d="M139.281,20.572a6.708,6.708,0,0,0-6.673-6.449,6.77,6.77,0,0,0-4.879,1.907,6.04,6.04,0,0,0-2.019,4.6,6.169,6.169,0,0,0,1.85,4.654,6.808,6.808,0,0,0,4.654,2.131,6.55,6.55,0,0,0,5.047-1.963,6.243,6.243,0,0,0,2.019-4.879m2.355.168v8.411h-2.355V26.572A9.146,9.146,0,0,1,132.16,29.6a8.832,8.832,0,0,1-6.28-2.692A8.311,8.311,0,0,1,123.3,20.8a8.426,8.426,0,0,1,2.8-6.336,8.858,8.858,0,0,1,6.673-2.467,8.992,8.992,0,0,1,6.393,2.692A7.613,7.613,0,0,1,141.636,20.74Z" transform="translate(-54.16 -5.263)"/>
    <path id="Path_87" data-name="Path 87" class="cls-2" d="M138.754,17.309A6.264,6.264,0,0,1,139.315,20h0a8.077,8.077,0,0,1-.5,2.86,8.771,8.771,0,0,1-1.682,2.467,6.738,6.738,0,0,1-2.523,1.626,7.36,7.36,0,0,1-2.972.449h0a8.568,8.568,0,0,1-2.748-.617,7.362,7.362,0,0,1-2.3-1.682h0a7.865,7.865,0,0,1-1.57-2.355,7.262,7.262,0,0,1-.5-2.748,7.51,7.51,0,0,1,.561-2.748,6.575,6.575,0,0,1,1.682-2.3,8.507,8.507,0,0,1,2.411-1.57,8.077,8.077,0,0,1,2.86-.5,7.262,7.262,0,0,1,2.748.5h0a6.934,6.934,0,0,1,2.355,1.57,7.125,7.125,0,0,1,1.626,2.355m-.617,2.748a5.059,5.059,0,0,0-.5-2.243,5.4,5.4,0,0,0-1.346-1.907,6.266,6.266,0,0,0-1.963-1.29h0a6.219,6.219,0,0,0-2.3-.449,6.593,6.593,0,0,0-2.411.449,6.5,6.5,0,0,0-2.019,1.29,6.437,6.437,0,0,0-1.4,1.907,5.928,5.928,0,0,0-.449,2.243h0a5.9,5.9,0,0,0,.393,2.243,6.266,6.266,0,0,0,1.29,1.963h0a6.01,6.01,0,0,0,1.963,1.4,6.292,6.292,0,0,0,4.822.168,5.059,5.059,0,0,0,2.075-1.4,5.975,5.975,0,0,0,1.4-2.019A5.516,5.516,0,0,0,138.137,20.056Zm2.355.224v-.112h0a6.9,6.9,0,0,0-.5-3.028,8.807,8.807,0,0,0-1.794-2.636,9.874,9.874,0,0,0-2.748-1.85,7.854,7.854,0,0,0-3.252-.673h0a8.17,8.17,0,0,0-3.364.5,9.758,9.758,0,0,0-2.86,1.794h0a9.714,9.714,0,0,0-1.963,2.692,7.415,7.415,0,0,0-.673,3.2,7.966,7.966,0,0,0,.617,3.084,8.755,8.755,0,0,0,4.486,4.486,8.337,8.337,0,0,0,3.2.673h0a8.47,8.47,0,0,0,6.673-2.86l1.065-1.121v3.589h1.178V20.281Zm1.234-.112V29.2h-3.589v-1.85a8.156,8.156,0,0,1-2.411,1.458,9.272,9.272,0,0,1-4.15.729h0a9.863,9.863,0,0,1-3.645-.785,11.052,11.052,0,0,1-3.084-2.075,9.131,9.131,0,0,1-2.075-3.028,9.424,9.424,0,0,1-.673-3.533,9.274,9.274,0,0,1,.729-3.7,9.645,9.645,0,0,1,2.243-3.084h0a9.23,9.23,0,0,1,7.121-2.636h0a9.915,9.915,0,0,1,3.7.785,10.3,10.3,0,0,1,3.084,2.075,8.368,8.368,0,0,1,2.075,3.028,8.02,8.02,0,0,1,.673,3.589Z" transform="translate(-53.633 -4.692)"/>
    <path id="Path_88" data-name="Path 88" class="cls-1" d="M104.313,21.889a7.192,7.192,0,0,1-2.243,5.439,8.427,8.427,0,0,1-11.327,0A7.192,7.192,0,0,1,88.5,21.889V12.3h2.355v9.869a4.762,4.762,0,0,0,1.682,3.645,5.7,5.7,0,0,0,7.738,0,4.762,4.762,0,0,0,1.682-3.645V12.3h2.355Z" transform="translate(-38.874 -5.403)"/>
    <path id="Path_89" data-name="Path 89" class="cls-2" d="M102.752,24.153a7.262,7.262,0,0,0,.5-2.748V12.434h-1.178v9.252a6.153,6.153,0,0,1-.449,2.243,6.22,6.22,0,0,1-1.4,1.85,6.976,6.976,0,0,1-1.963,1.29,6.219,6.219,0,0,1-2.3.449,6.45,6.45,0,0,1-2.3-.449,5.688,5.688,0,0,1-1.963-1.29,6.219,6.219,0,0,1-1.4-1.85,5.021,5.021,0,0,1-.449-2.243V12.434H88.678v8.972a7.061,7.061,0,0,0,.5,2.748,6.052,6.052,0,0,0,1.57,2.243,7.237,7.237,0,0,0,5.215,2.019,8.165,8.165,0,0,0,2.916-.5,7.664,7.664,0,0,0,2.355-1.514,6.614,6.614,0,0,0,1.514-2.243m1.738-2.748a8.834,8.834,0,0,1-.617,3.252,7.6,7.6,0,0,1-1.794,2.636,8.039,8.039,0,0,1-2.748,1.794,9.214,9.214,0,0,1-3.364.617,8.212,8.212,0,0,1-7.85-4.991,8.834,8.834,0,0,1-.617-3.252V11.2h3.589V21.686a4.57,4.57,0,0,0,.336,1.738,3.931,3.931,0,0,0,1.122,1.458,5.193,5.193,0,0,0,5.327,1.009A5.584,5.584,0,0,0,99.5,24.882a5.353,5.353,0,0,0,1.121-1.458,4.368,4.368,0,0,0,.336-1.738V11.2h3.589V21.406Z" transform="translate(-38.435 -4.92)"/>
    <path id="Path_90" data-name="Path 90" class="cls-1" d="M71.578,25.21h-6.9a7,7,0,0,1-4.542-1.458A5.034,5.034,0,0,1,58.4,19.6V2.5h2.355V20a3.393,3.393,0,0,0,1.178,2.355,4.068,4.068,0,0,0,2.692.729h6.953Z" transform="translate(-25.652 -1.098)"/>
    <path id="Path_91" data-name="Path 91" class="cls-2" d="M64.2,24.11h6.336v-.953H64.2a5.819,5.819,0,0,1-1.794-.224,3.49,3.49,0,0,1-1.29-.673h0A5.074,5.074,0,0,1,60.1,20.97a3.546,3.546,0,0,1-.393-1.458V2.634H58.534V19.12a5.256,5.256,0,0,0,.393,2.187,3.829,3.829,0,0,0,1.121,1.514,4.276,4.276,0,0,0,1.794.953,7.97,7.97,0,0,0,2.355.336m6.9,1.234H64.2a8.451,8.451,0,0,1-2.692-.393,6.82,6.82,0,0,1-2.187-1.178A5.333,5.333,0,0,1,57.8,21.755a6.5,6.5,0,0,1-.5-2.636V1.4h3.589V19.512a1.776,1.776,0,0,0,.224.9,4.115,4.115,0,0,0,.785,1.009h0a2.049,2.049,0,0,0,.785.393,5.484,5.484,0,0,0,1.458.168h7.57v3.364Z" transform="translate(-25.169 -0.615)"/>
    <path id="Path_92" data-name="Path 92" class="cls-1" d="M270.385,15.732a6.718,6.718,0,0,0-4.093-1.963,6.794,6.794,0,0,0-4.542,1.178,7.012,7.012,0,0,0-3.028,3.7,6.5,6.5,0,0,0,.056,4.6Zm3.14.449-13.514,8.8a6.1,6.1,0,0,0,4.206,2.3,6.98,6.98,0,0,0,4.878-1.234,7.007,7.007,0,0,0,2.355-2.467l2.019.841a10.116,10.116,0,0,1-3.2,3.533,9.09,9.09,0,0,1-6.841,1.4,8.314,8.314,0,0,1-5.776-3.589,8.6,8.6,0,0,1-1.178-7.065,9.111,9.111,0,0,1,4.43-5.888,9.637,9.637,0,0,1,6.729-1.065,7.834,7.834,0,0,1,5.215,3.364Z" transform="translate(-112.535 -5.078)"/>
    <path id="Path_93" data-name="Path 93" class="cls-2" d="M268.286,13.27a7.106,7.106,0,0,1,2.019,1.458l.5.5-.617.393-11.551,7.514-.617.393-.28-.673a6.749,6.749,0,0,1-.5-2.523,6.67,6.67,0,0,1,.449-2.523,6.887,6.887,0,0,1,1.29-2.243,9.694,9.694,0,0,1,1.963-1.738,8.348,8.348,0,0,1,2.411-1.065,6.413,6.413,0,0,1,2.523-.168,9.081,9.081,0,0,1,2.411.673m.617,1.85a7.7,7.7,0,0,0-1.121-.729,7.874,7.874,0,0,0-1.963-.561,6.853,6.853,0,0,0-2.131.168,8.3,8.3,0,0,0-2.075.9,7.166,7.166,0,0,0-1.682,1.458,6.984,6.984,0,0,0-1.065,1.907,5.371,5.371,0,0,0-.336,2.075,5.53,5.53,0,0,0,.168,1.346Zm-9.757,8.8,13.009-8.467-.336-.5a6.55,6.55,0,0,0-1.963-1.963A8.245,8.245,0,0,0,267,11.868h0a9.427,9.427,0,0,0-3.308-.112,8.5,8.5,0,0,0-3.028,1.065h0a8.771,8.771,0,0,0-2.635,2.3,9.377,9.377,0,0,0-1.514,3.2,8.185,8.185,0,0,0-.168,3.477,7.412,7.412,0,0,0,1.29,3.084h0a7.551,7.551,0,0,0,2.243,2.187,8.068,8.068,0,0,0,3.14,1.121,8.46,8.46,0,0,0,3.364-.056,8.989,8.989,0,0,0,3.028-1.29h0a11.374,11.374,0,0,0,1.738-1.458,10.31,10.31,0,0,0,.953-1.234l-.9-.393a6.462,6.462,0,0,1-.785.953,10.565,10.565,0,0,1-1.458,1.234h0a7.14,7.14,0,0,1-2.523,1.121,7.509,7.509,0,0,1-2.748.168,7.7,7.7,0,0,1-2.579-.785,6.74,6.74,0,0,1-2.075-1.738l-.449-.5Zm14.187-7.794L260.38,24.485a4.617,4.617,0,0,0,1.234.9,6.335,6.335,0,0,0,2.131.673,5.279,5.279,0,0,0,2.3-.168,7.421,7.421,0,0,0,2.187-.953h0a8.151,8.151,0,0,0,1.29-1.065,8.194,8.194,0,0,0,.9-1.178l.28-.5.5.224,2.019.841.617.28-.336.561a10.644,10.644,0,0,1-1.458,2.075,11.48,11.48,0,0,1-1.963,1.682h0a9.03,9.03,0,0,1-3.477,1.458,10.848,10.848,0,0,1-3.813.056,10.523,10.523,0,0,1-3.589-1.29,9.6,9.6,0,0,1-2.636-2.579h0a8.691,8.691,0,0,1-1.458-3.589,9.72,9.72,0,0,1,.224-3.981,9.579,9.579,0,0,1,4.71-6.28h0a11.21,11.21,0,0,1,3.477-1.234,10.346,10.346,0,0,1,3.7.112h0a10.658,10.658,0,0,1,3.252,1.29,7.861,7.861,0,0,1,2.355,2.355l.673,1.009.336.5Z" transform="translate(-112.006 -4.522)"/>
    <path id="Path_94" data-name="Path 94" class="cls-1" d="M186.2,52.579l-.729.729a1.276,1.276,0,0,0-.785-.449.42.42,0,0,0-.28.056.291.291,0,0,0-.112.224.206.206,0,0,0,.056.168,3.324,3.324,0,0,0,.336.224l.393.224a2.469,2.469,0,0,1,.9.673,1.288,1.288,0,0,1,.224.785,1.4,1.4,0,0,1-.449,1.009,1.58,1.58,0,0,1-1.178.393,1.889,1.889,0,0,1-1.57-.785l.673-.785a1.511,1.511,0,0,0,.449.393.9.9,0,0,0,.5.168.474.474,0,0,0,.336-.112.224.224,0,0,0,.112-.224q0-.252-.5-.5l-.393-.168c-.729-.393-1.122-.841-1.122-1.4a1.116,1.116,0,0,1,.393-.9,1.4,1.4,0,0,1,1.065-.393,2.25,2.25,0,0,1,.841.168,1.152,1.152,0,0,1,.841.5m-6.056.336a1.116,1.116,0,0,0-.9.393,1.519,1.519,0,0,0,0,1.907,1.22,1.22,0,0,0,.9.393,1.116,1.116,0,0,0,.9-.393,1.519,1.519,0,0,0,0-1.907A1.116,1.116,0,0,0,180.145,52.916Zm-.056-1.065a2.073,2.073,0,0,1,1.178.336,2.6,2.6,0,0,1,.9.841,2.356,2.356,0,0,1,.336,1.178,2.073,2.073,0,0,1-.336,1.178,2.022,2.022,0,0,1-.841.841,2.4,2.4,0,0,1-1.234.336,2.374,2.374,0,0,1-1.682-.673,2.282,2.282,0,0,1-.673-1.682,2.215,2.215,0,0,1,.785-1.738A2.243,2.243,0,0,1,180.089,51.85Zm-7.234.112h1.121v.449a2.735,2.735,0,0,1,.673-.449,2.894,2.894,0,0,1,.617-.112,1.455,1.455,0,0,1,1.514,1.626v2.972h-1.122V54.486a4.6,4.6,0,0,0-.056-1.065c-.056-.168-.112-.336-.28-.393a.6.6,0,0,0-.449-.112.843.843,0,0,0-.617.224,1.337,1.337,0,0,0-.336.617,3.486,3.486,0,0,0-.056.9v1.794h-1.121V51.963Zm-3.421.9a1.2,1.2,0,0,0-.9.393,1.519,1.519,0,0,0,0,1.907,1.22,1.22,0,0,0,.9.393,1.116,1.116,0,0,0,.9-.393,1.519,1.519,0,0,0,0-1.907A1.194,1.194,0,0,0,169.435,52.86Zm1.178-.9h1.122V56.5h-1.122V56a2.346,2.346,0,0,1-.673.449,1.539,1.539,0,0,1-.729.112,2.092,2.092,0,0,1-1.514-.673,2.239,2.239,0,0,1-.617-1.682,2.63,2.63,0,0,1,.617-1.738,1.92,1.92,0,0,1,1.514-.673,1.979,1.979,0,0,1,.785.168,4.681,4.681,0,0,1,.673.449v-.449Zm-11.383,0h1.121v.5a1.531,1.531,0,0,1,.673-.5,1.791,1.791,0,0,1,.785-.168,1.287,1.287,0,0,1,.785.224,1.518,1.518,0,0,1,.561.617,1.783,1.783,0,0,1,.673-.617,2.35,2.35,0,0,1,.841-.224,1.351,1.351,0,0,1,.841.224,1.591,1.591,0,0,1,.5.561,2.887,2.887,0,0,1,.168,1.178v2.636h-1.121v-2.3a2.459,2.459,0,0,0-.168-1.065.758.758,0,0,0-1.065-.112.872.872,0,0,0-.336.449,3.332,3.332,0,0,0-.112.953v2.019h-1.122V54.15a3.515,3.515,0,0,0-.112-.9.715.715,0,0,0-.28-.393.6.6,0,0,0-.449-.112.9.9,0,0,0-.5.168.872.872,0,0,0-.336.449,3.659,3.659,0,0,0-.112.953v2.019h-1.121V51.963Zm-5.1,0H155.3V54.15a2.879,2.879,0,0,0,.112.9,1.006,1.006,0,0,0,.28.393c.112.112.28.112.5.112a1.637,1.637,0,0,0,.5-.112,1.006,1.006,0,0,0,.28-.393,2.778,2.778,0,0,0,.056-.841V52.019h1.122v1.907A5.208,5.208,0,0,1,158,55.551a2.483,2.483,0,0,1-.673.841,2.209,2.209,0,0,1-1.122.28,1.84,1.84,0,0,1-1.178-.336,2.084,2.084,0,0,1-.673-.953,5.08,5.08,0,0,1-.112-1.514V51.963Zm-5.1-1.794h1.122v2.187a4.678,4.678,0,0,1,.673-.449,1.493,1.493,0,0,1,.673-.168A1.455,1.455,0,0,1,153,53.364v2.972h-1.121v-1.85a4.883,4.883,0,0,0-.056-1.065c-.056-.168-.112-.336-.28-.393a.6.6,0,0,0-.449-.112.843.843,0,0,0-.617.224,1.108,1.108,0,0,0-.336.617,3.506,3.506,0,0,0-.056.953V56.5h-1.121V50.168Zm-3.364,2.411-.729.729a1.276,1.276,0,0,0-.785-.449.42.42,0,0,0-.28.056.291.291,0,0,0-.112.224.206.206,0,0,0,.056.168,3.326,3.326,0,0,0,.336.224l.393.224a2.469,2.469,0,0,1,.9.673,1.287,1.287,0,0,1,.224.785,1.4,1.4,0,0,1-.449,1.009,1.58,1.58,0,0,1-1.178.393,1.889,1.889,0,0,1-1.57-.785l.673-.785a1.512,1.512,0,0,0,.449.393.9.9,0,0,0,.5.168.474.474,0,0,0,.336-.112.224.224,0,0,0,.112-.224q0-.252-.5-.5l-.393-.168c-.729-.393-1.122-.841-1.122-1.4a1.116,1.116,0,0,1,.393-.9,1.4,1.4,0,0,1,1.065-.393,2.25,2.25,0,0,1,.841.168A1.152,1.152,0,0,1,145.659,52.579Zm-6.056.336a1.116,1.116,0,0,0-.9.393,1.519,1.519,0,0,0,0,1.907,1.22,1.22,0,0,0,.9.393,1.116,1.116,0,0,0,.9-.393,1.519,1.519,0,0,0,0-1.907A1.194,1.194,0,0,0,139.6,52.916Zm-.056-1.065a2.073,2.073,0,0,1,1.178.336,2.6,2.6,0,0,1,.9.841,2.355,2.355,0,0,1,.336,1.178,2.073,2.073,0,0,1-.336,1.178,2.022,2.022,0,0,1-.841.841,2.4,2.4,0,0,1-1.234.336,2.374,2.374,0,0,1-1.682-.673,2.282,2.282,0,0,1-.673-1.682,2.215,2.215,0,0,1,.785-1.738A2.243,2.243,0,0,1,139.547,51.85Zm-3.084.729-.729.729a1.276,1.276,0,0,0-.785-.449.42.42,0,0,0-.28.056.291.291,0,0,0-.112.224.206.206,0,0,0,.056.168,3.324,3.324,0,0,0,.336.224l.393.224a2.469,2.469,0,0,1,.9.673,1.287,1.287,0,0,1,.224.785,1.4,1.4,0,0,1-.449,1.009,1.58,1.58,0,0,1-1.178.393,1.889,1.889,0,0,1-1.57-.785l.673-.785a1.512,1.512,0,0,0,.449.393.9.9,0,0,0,.5.168.474.474,0,0,0,.336-.112.224.224,0,0,0,.112-.224q0-.252-.5-.5l-.393-.168c-.729-.393-1.122-.841-1.122-1.4a1.116,1.116,0,0,1,.393-.9,1.4,1.4,0,0,1,1.065-.393,2.25,2.25,0,0,1,.841.168A1.152,1.152,0,0,1,136.463,52.579Zm-5.776-.617h.953v.561a1.221,1.221,0,0,1,.393-.5,1.082,1.082,0,0,1,.561-.168,1.32,1.32,0,0,1,.449.112l-.336.953a.8.8,0,0,0-.336-.112.526.526,0,0,0-.449.336,3.163,3.163,0,0,0-.168,1.29V56.5h-1.121V51.963Zm-4.822,0h1.178V54.15a2.88,2.88,0,0,0,.112.9,1.006,1.006,0,0,0,.28.393c.112.112.28.112.5.112a1.637,1.637,0,0,0,.5-.112,1.006,1.006,0,0,0,.28-.393,2.777,2.777,0,0,0,.056-.841V52.019H129.9v1.907a5.208,5.208,0,0,1-.168,1.626,2.483,2.483,0,0,1-.673.841,2.208,2.208,0,0,1-1.121.28,1.84,1.84,0,0,1-1.178-.336,2.084,2.084,0,0,1-.673-.953,5.08,5.08,0,0,1-.112-1.514V51.963Zm-1.009.9-.953.5a1.546,1.546,0,0,0-.5-.393,2.016,2.016,0,0,0-.617-.112,1.2,1.2,0,0,0-1.009.393,1.354,1.354,0,0,0,0,1.907,1.463,1.463,0,0,0,1.009.336,1.448,1.448,0,0,0,1.178-.5l.9.617a2.533,2.533,0,0,1-2.075.953,2.331,2.331,0,0,1-1.85-.729,2.246,2.246,0,0,1-.673-1.626,2.4,2.4,0,0,1,.336-1.234,1.861,1.861,0,0,1,.9-.841,2.6,2.6,0,0,1,1.29-.336,3.056,3.056,0,0,1,1.234.28A3.691,3.691,0,0,1,124.855,52.86Zm-6.5.785a1.176,1.176,0,0,0-.449-.617,1.287,1.287,0,0,0-.785-.224,1.377,1.377,0,0,0-.841.28,1.109,1.109,0,0,0-.393.561Zm1.121.9h-3.645a1.317,1.317,0,0,0,.393.785,1.526,1.526,0,0,0,1.963-.168l.953.449a2.1,2.1,0,0,1-.841.729,2.6,2.6,0,0,1-1.178.224,2.323,2.323,0,0,1-1.738-.673,2.282,2.282,0,0,1-.673-1.682,2.507,2.507,0,0,1,.673-1.738,2.282,2.282,0,0,1,1.682-.673,2.323,2.323,0,0,1,1.738.673,2.455,2.455,0,0,1,.673,1.794Zm-7.514-2.579h.953v.561a1.221,1.221,0,0,1,.393-.5,1.082,1.082,0,0,1,.561-.168,1.32,1.32,0,0,1,.449.112l-.336.953a.8.8,0,0,0-.336-.112.526.526,0,0,0-.449.336,3.163,3.163,0,0,0-.168,1.29V56.5H111.9V51.963Zm-10.15,0h1.121v.5a1.531,1.531,0,0,1,.673-.5,1.791,1.791,0,0,1,.785-.168,1.287,1.287,0,0,1,.785.224,1.518,1.518,0,0,1,.561.617,1.783,1.783,0,0,1,.673-.617,2.35,2.35,0,0,1,.841-.224,1.351,1.351,0,0,1,.841.224,1.591,1.591,0,0,1,.5.561,2.887,2.887,0,0,1,.168,1.178v2.636H107.64v-2.3a2.459,2.459,0,0,0-.168-1.065.758.758,0,0,0-1.065-.112.872.872,0,0,0-.336.449,3.334,3.334,0,0,0-.112.953v2.019h-1.121V54.15a3.514,3.514,0,0,0-.112-.9.715.715,0,0,0-.28-.393.6.6,0,0,0-.449-.112.9.9,0,0,0-.5.168.872.872,0,0,0-.336.449,3.659,3.659,0,0,0-.112.953v2.019h-1.121V51.963ZM99.79,53.645a1.176,1.176,0,0,0-.449-.617,1.287,1.287,0,0,0-.785-.224,1.377,1.377,0,0,0-.841.28,1.109,1.109,0,0,0-.393.561Zm1.121.9H97.266a1.317,1.317,0,0,0,.393.785,1.526,1.526,0,0,0,1.963-.168l.953.449a2.1,2.1,0,0,1-.841.729,2.6,2.6,0,0,1-1.178.224,2.323,2.323,0,0,1-1.738-.673,2.282,2.282,0,0,1-.673-1.682,2.507,2.507,0,0,1,.673-1.738,2.282,2.282,0,0,1,1.682-.673,2.323,2.323,0,0,1,1.738.673,2.455,2.455,0,0,1,.673,1.794ZM93,52.579l-.729.729a1.276,1.276,0,0,0-.785-.449.42.42,0,0,0-.28.056.291.291,0,0,0-.112.224.206.206,0,0,0,.056.168,3.322,3.322,0,0,0,.336.224l.393.224a2.469,2.469,0,0,1,.9.673,1.287,1.287,0,0,1,.224.785,1.4,1.4,0,0,1-.449,1.009,1.58,1.58,0,0,1-1.178.393,1.889,1.889,0,0,1-1.57-.785l.673-.785a1.511,1.511,0,0,0,.449.393.9.9,0,0,0,.5.168.474.474,0,0,0,.336-.112.224.224,0,0,0,.112-.224q0-.252-.5-.5l-.393-.168c-.729-.393-1.121-.841-1.121-1.4a1.116,1.116,0,0,1,.393-.9,1.4,1.4,0,0,1,1.065-.393,2.25,2.25,0,0,1,.841.168A1.152,1.152,0,0,1,93,52.579Zm-4.822,1.065a1.176,1.176,0,0,0-.449-.617,1.287,1.287,0,0,0-.785-.224,1.377,1.377,0,0,0-.841.28,1.109,1.109,0,0,0-.393.561Zm1.178.9H85.715a1.317,1.317,0,0,0,.393.785,1.526,1.526,0,0,0,1.963-.168l.953.449a2.1,2.1,0,0,1-.841.729A2.6,2.6,0,0,1,87,56.561a2.323,2.323,0,0,1-1.738-.673,2.282,2.282,0,0,1-.673-1.682,2.507,2.507,0,0,1,.673-1.738,2.282,2.282,0,0,1,1.682-.673,2.323,2.323,0,0,1,1.738.673,2.455,2.455,0,0,1,.673,1.794Zm-9.14-3.421-.449-.729A1.676,1.676,0,0,1,80.836,50a5.406,5.406,0,0,1,.673.112,2.468,2.468,0,0,0,.561.112A1.358,1.358,0,0,0,82.8,50l.449.673a1.626,1.626,0,0,1-1.009.449,2.894,2.894,0,0,1-.617-.112c-.224-.056-.336-.112-.393-.112h-.28A1.233,1.233,0,0,0,80.22,51.122Zm1.29,1.794a1.116,1.116,0,0,0-.9.393,1.519,1.519,0,0,0,0,1.907,1.22,1.22,0,0,0,.9.393,1.116,1.116,0,0,0,.9-.393,1.519,1.519,0,0,0,0-1.907A1.116,1.116,0,0,0,81.509,52.916Zm0-1.065a2.073,2.073,0,0,1,1.178.336,2.6,2.6,0,0,1,.9.841,2.355,2.355,0,0,1,.336,1.178,2.073,2.073,0,0,1-.336,1.178,2.022,2.022,0,0,1-.841.841,2.4,2.4,0,0,1-1.234.336,2.374,2.374,0,0,1-1.682-.673,2.282,2.282,0,0,1-.673-1.682,2.215,2.215,0,0,1,.785-1.738A2.07,2.07,0,0,1,81.509,51.85Zm-5.776,4.542h.673v.168a1.127,1.127,0,0,1,.449.224.606.606,0,0,1,.168.393.779.779,0,0,1-.28.561,1.1,1.1,0,0,1-.785.224,2.788,2.788,0,0,1-.9-.168l.168-.561a2.468,2.468,0,0,0,.561.112.607.607,0,0,0,.336-.056.291.291,0,0,0,.112-.224.206.206,0,0,0-.056-.168c-.056-.056-.112-.056-.224-.056h-.224Zm2.579-3.533-.953.5a1.546,1.546,0,0,0-.5-.393,2.016,2.016,0,0,0-.617-.112,1.2,1.2,0,0,0-1.009.393,1.354,1.354,0,0,0,0,1.907,1.463,1.463,0,0,0,1.009.336,1.448,1.448,0,0,0,1.178-.5l.9.617a2.533,2.533,0,0,1-2.075.953,2.33,2.33,0,0,1-1.85-.729,2.246,2.246,0,0,1-.673-1.626,2.4,2.4,0,0,1,.336-1.234,1.861,1.861,0,0,1,.9-.841,2.6,2.6,0,0,1,1.29-.336,3.056,3.056,0,0,1,1.234.28A2.814,2.814,0,0,1,78.313,52.86Zm-9.533-.9h1.178V54.15a2.88,2.88,0,0,0,.112.9,1.006,1.006,0,0,0,.28.393c.112.112.28.112.5.112a1.637,1.637,0,0,0,.5-.112,1.006,1.006,0,0,0,.28-.393,2.777,2.777,0,0,0,.056-.841V52.019h1.121v1.907a5.207,5.207,0,0,1-.168,1.626,2.483,2.483,0,0,1-.673.841,2.209,2.209,0,0,1-1.122.28,1.84,1.84,0,0,1-1.178-.336A2.084,2.084,0,0,1,69,55.383a5.08,5.08,0,0,1-.112-1.514V51.963ZM66.65,50.168h1.121v6.28H66.65Zm-3.2,2.748a1.116,1.116,0,0,0-.9.393,1.519,1.519,0,0,0,0,1.907,1.22,1.22,0,0,0,.9.393,1.116,1.116,0,0,0,.9-.393,1.519,1.519,0,0,0,0-1.907A1.116,1.116,0,0,0,63.453,52.916ZM63.4,51.85a2.073,2.073,0,0,1,1.178.336,2.6,2.6,0,0,1,.9.841,2.355,2.355,0,0,1,.336,1.178,2.073,2.073,0,0,1-.336,1.178,2.022,2.022,0,0,1-.841.841,2.4,2.4,0,0,1-1.234.336,2.374,2.374,0,0,1-1.682-.673,2.282,2.282,0,0,1-.673-1.682,2.215,2.215,0,0,1,.785-1.738A2.243,2.243,0,0,1,63.4,51.85Zm-3.2-.673-.841.785a1.256,1.256,0,0,0-.9-.617.811.811,0,0,0-.393.112.308.308,0,0,0-.168.28.428.428,0,0,0,.112.28c.112.112.393.393.841.785a5.526,5.526,0,0,1,.785.729,2.636,2.636,0,0,1,.5.673,1.552,1.552,0,0,1,.168.729,1.649,1.649,0,0,1-.5,1.234,1.819,1.819,0,0,1-1.346.5,1.779,1.779,0,0,1-1.121-.336,2.54,2.54,0,0,1-.841-1.009l.953-.617c.28.561.617.785,1.009.785a.685.685,0,0,0,.5-.168.568.568,0,0,0,.224-.393.606.606,0,0,0-.168-.393c-.112-.112-.336-.336-.673-.617a6.892,6.892,0,0,1-1.29-1.234,1.862,1.862,0,0,1-.28-.9,1.3,1.3,0,0,1,.5-1.065,1.81,1.81,0,0,1,1.178-.449,1.776,1.776,0,0,1,.9.224A1.96,1.96,0,0,1,60.2,51.178Z" transform="translate(-24.818 -21.963)"/>
  </g>
</svg>
