<svg xmlns="http://www.w3.org/2000/svg" width="7.422" height="13.728" viewBox="0 0 7.422 13.728"><defs><style>.a{fill:#fff;}</style></defs><path class="a" d="M29.219,0l-1.78,0a3.126,3.126,0,0,0-3.292,3.378V4.936h-1.79a.28.28,0,0,0-.28.28V7.473a.28.28,0,0,0,.28.28h1.79v5.695a.28.28,0,0,0,.28.28h2.335a.28.28,0,0,0,.28-.28V7.753h2.093a.28.28,0,0,0,.28-.28V5.216a.28.28,0,0,0-.28-.28H27.042V3.616c0-.635.151-.957.978-.957h1.2a.28.28,0,0,0,.28-.28V.283A.28.28,0,0,0,29.219,0Z" transform="translate(-22.077)"/></svg>