<svg xmlns="http://www.w3.org/2000/svg" width="22" height="22" viewBox="0 0 22 22"><defs><style>.a{fill:#fff;}</style></defs><g transform="translate(4.013 3.839)"><path class="a" d="M127.329,119.434a6.955,6.955,0,0,0-2.653-1.666,4.041,4.041,0,1,0-4.577,0,7,7,0,0,0-4.7,6.607h1.092a5.895,5.895,0,0,1,11.789,0h1.092A6.943,6.943,0,0,0,127.329,119.434Zm-4.942-2.048a2.949,2.949,0,1,1,2.949-2.949A2.953,2.953,0,0,1,122.387,117.386Z" transform="translate(-115.4 -110.4)"/></g><path class="a" d="M11,22A11,11,0,0,1,3.22,3.22,11,11,0,0,1,18.78,18.777,10.937,10.937,0,0,1,11,22ZM11,1.043a9.955,9.955,0,0,0-7.039,17A9.959,9.959,0,1,0,11,1.043Z"/></svg>