<svg xmlns="http://www.w3.org/2000/svg" width="14.457" height="14.457" viewBox="0 0 14.457 14.457"><defs><style>.a{fill:#fff;}</style></defs><path class="a" d="M13.012,0H1.446A1.45,1.45,0,0,0,0,1.446V13.012a1.45,1.45,0,0,0,1.446,1.446H13.012a1.45,1.45,0,0,0,1.446-1.446V1.446A1.45,1.45,0,0,0,13.012,0ZM7.229,4.337A2.891,2.891,0,1,1,4.337,7.229,2.9,2.9,0,0,1,7.229,4.337ZM1.807,13.012a.341.341,0,0,1-.361-.361V6.506H2.964a2.459,2.459,0,0,0-.072.723,4.337,4.337,0,0,0,8.674,0,2.459,2.459,0,0,0-.072-.723h1.518V12.65a.341.341,0,0,1-.361.361Zm11.2-9.759a.341.341,0,0,1-.361.361H11.2a.341.341,0,0,1-.361-.361V1.807a.341.341,0,0,1,.361-.361H12.65a.341.341,0,0,1,.361.361Z"/></svg>