<svg xmlns="http://www.w3.org/2000/svg" viewBox="0 0 17.104 16.344"><defs><style>.a{fill:#0091d5;}</style></defs><g transform="translate(-5 -10.629)"><path class="a" d="M17.1,20.651v6.322H13.437v-5.9c0-1.484-.529-2.492-1.856-2.492A2.008,2.008,0,0,0,9.7,19.919a2.535,2.535,0,0,0-.125.9v6.158H5.911s.049-9.992,0-11.027H9.576v1.563c0,.013-.016.024-.021.038h.021v-.038a3.642,3.642,0,0,1,3.3-1.822C15.3,15.687,17.1,17.263,17.1,20.651ZM2.075,10.629a1.912,1.912,0,1,0-.047,3.813H2.05a1.912,1.912,0,1,0,.025-3.813ZM.219,26.973H3.884V15.945H.219Z" transform="translate(5 0)"/></g></svg>