<svg xmlns="http://www.w3.org/2000/svg" width="14.366" height="13.728" viewBox="0 0 14.366 13.728"><defs><style>.a{fill:#fff;}</style></defs><path class="a" d="M14.366,19.046v5.31h-3.08V19.4c0-1.246-.444-2.093-1.559-2.093a1.686,1.686,0,0,0-1.58,1.125,2.129,2.129,0,0,0-.105.752v5.172H4.965s.041-8.392,0-9.261H8.043v1.313c0,.011-.013.02-.017.032h.017v-.032a3.059,3.059,0,0,1,2.776-1.53C12.849,14.877,14.366,16.2,14.366,19.046ZM1.742,10.629a1.606,1.606,0,1,0-.04,3.2h.019a1.606,1.606,0,1,0,.021-3.2ZM.184,24.357H3.262V15.094H.184Z" transform="translate(0 -10.629)"/></svg>