<svg xmlns="http://www.w3.org/2000/svg" width="14.457" height="17.349" viewBox="0 0 14.457 17.349"><defs><style>.a{fill:#fff;}</style></defs><path class="a" d="M19.729,12.69h-.952l0-.553a.449.449,0,0,1,.448-.447h.061a.45.45,0,0,1,.45.447ZM16.158,11.5a.407.407,0,0,0-.439.361v2.69a.448.448,0,0,0,.879,0v-2.69A.407.407,0,0,0,16.158,11.5Zm5.8-1.5v5.117a2.308,2.308,0,0,1-2.365,2.232H9.865A2.308,2.308,0,0,1,7.5,15.117V10A2.308,2.308,0,0,1,9.865,7.769h9.727A2.308,2.308,0,0,1,21.957,10ZM10.514,15.673v-5.39h1.206v-.8l-3.214,0v.785l1,0v5.4Zm3.614-4.587H13.123v2.878a5.1,5.1,0,0,1,0,.7c-.082.223-.449.46-.592.024a5.728,5.728,0,0,1,0-.7l0-2.9h-1l0,2.853c0,.437-.01.763,0,.912.024.262.016.567.258.741a1.214,1.214,0,0,0,1.536-.514l0,.594h.807V11.086Zm3.216,3.3,0-2.4c0-.913-.684-1.46-1.611-.721l0-1.781-1,0,0,6.147.826-.012.075-.383C16.683,16.206,17.346,15.543,17.344,14.382Zm3.146-.317-.754,0c0,.03,0,.064,0,.1v.421a.412.412,0,0,1-.412.408h-.148a.412.412,0,0,1-.412-.408V13.484h1.726v-.65a10.249,10.249,0,0,0-.051-1.221c-.124-.859-1.329-.995-1.937-.555a1.135,1.135,0,0,0-.422.568,3.2,3.2,0,0,0-.128,1.013v1.428C17.951,16.442,20.835,16.106,20.491,14.064ZM16.624,6.31a.684.684,0,0,0,.242.305.7.7,0,0,0,.411.114.64.64,0,0,0,.385-.12.924.924,0,0,0,.282-.361l-.019.394h1.121V1.878h-.882V5.586a.367.367,0,0,1-.735,0V1.878h-.921V5.092c0,.409.008.682.02.821A1.382,1.382,0,0,0,16.624,6.31Zm-3.4-2.691a3.965,3.965,0,0,1,.114-1.072,1.147,1.147,0,0,1,1.172-.853,1.39,1.39,0,0,1,.667.151,1.111,1.111,0,0,1,.43.391,1.542,1.542,0,0,1,.207.5,3.958,3.958,0,0,1,.056.78V4.716a6.524,6.524,0,0,1-.052.974,1.543,1.543,0,0,1-.221.579,1.047,1.047,0,0,1-.431.4,1.376,1.376,0,0,1-.608.128,1.689,1.689,0,0,1-.648-.109.889.889,0,0,1-.413-.33,1.467,1.467,0,0,1-.21-.534,5.149,5.149,0,0,1-.062-.94V3.618Zm.878,1.893a.447.447,0,1,0,.89,0V2.974a.447.447,0,1,0-.89,0ZM11,6.792h1.057V3.137L13.312.006H12.156l-.664,2.326L10.818,0H9.674L11,3.139Z" transform="translate(-7.5 0)"/></svg>