<svg xmlns="http://www.w3.org/2000/svg" width="80" height="80" viewBox="0 0 80 80"><defs><style>.a{fill:#49e5d3;}</style></defs><g transform="translate(-0.004)"><path class="a" d="M40.005,0A40,40,0,1,0,80,40,40,40,0,0,0,40.005,0Zm0,72.5A32.5,32.5,0,1,1,72.5,40,32.5,32.5,0,0,1,40.005,72.5ZM55.726,22.985a3.482,3.482,0,0,0-4.85,1.35L37.463,48.428l-7.47-9.093c-1.353-1.557-3.15-2.365-4.848-1.35a3.7,3.7,0,0,0-1.3,5.035l10.4,12.652A4.385,4.385,0,0,0,36.83,57.46l.008.015.1.005c.21.032,3.35.612,4.7-1.807l15.4-27.652A3.767,3.767,0,0,0,55.726,22.985Z" transform="translate(0)"/></g></svg>