<svg xmlns="http://www.w3.org/2000/svg" width="25" height="25" viewBox="0 0 25 25"><defs><style>.a{fill:#04bff7;}</style></defs><g transform="translate(0)"><path class="a" d="M12.5,0A12.5,12.5,0,1,0,25,12.5,12.5,12.5,0,0,0,12.5,0Zm5.942,9-1.187,1.187L14.841,7.766l-.917.917L16.34,11.1l-5.928,5.927L8,14.611l-.917.917L9.5,17.944l-.591.591-.011-.011a.468.468,0,0,1-.3.215l-2.254.5a.469.469,0,0,1-.559-.56l.5-2.253a.469.469,0,0,1,.215-.3l-.011-.011,9.539-9.54a.359.359,0,0,1,.507,0l1.91,1.91A.358.358,0,0,1,18.445,9Z" transform="translate(-0.003 0)"/></g></svg>