<svg xmlns="http://www.w3.org/2000/svg" width="25" height="25" viewBox="0 0 25 25"><defs><style>.a{fill:#707070;}.b{fill:#fff;}.c{fill:none;stroke:#707070;stroke-miterlimit:10;}</style></defs><circle class="a" cx="12.5" cy="12.5" r="12.5" transform="translate(0 0)"/><g transform="translate(6.406 5.16)"><path class="b" d="M26.633,15.292H25.388v9.786a1.243,1.243,0,0,1-1.246,1.246h-7.3A1.243,1.243,0,0,1,15.6,25.079V15.292H14.4V14.047h3.069v-1.2A1.243,1.243,0,0,1,18.715,11.6h3.648a1.243,1.243,0,0,1,1.246,1.246v1.2h3.069v1.246Zm-4.315-2.447H18.67v1.2h3.648Z" transform="translate(-14.4 -11.6)"/></g><line class="c" y2="6.806" transform="translate(13.879 10.454)"/><line class="c" y2="6.806" transform="translate(11.477 10.454)"/></svg>