<svg xmlns="http://www.w3.org/2000/svg" width="72.195" height="66.019" viewBox="0 0 72.195 66.019"><defs><style>.a{fill:#04bff7;}</style></defs><g transform="translate(0.001 -12.617)"><g transform="translate(-0.001 12.617)"><path class="a" d="M140.9,103.1a2.012,2.012,0,0,0-2.13,2.13v15.333a2.13,2.13,0,0,0,4.259,0V105.232A2.012,2.012,0,0,0,140.9,103.1Z" transform="translate(-104.806 -80.954)"/><path class="a" d="M142.181,210.759a2.059,2.059,0,0,0-2.982,0,2.561,2.561,0,0,0-.426,1.7c0,.852,0,1.278.426,1.7a2.561,2.561,0,0,0,1.7.426c.426,0,1.278,0,.852-.426a3.229,3.229,0,0,0,.852-1.7C142.608,211.611,142.608,211.185,142.181,210.759Z" transform="translate(-104.806 -161.777)"/><path class="a" d="M70.6,62.024,45.467,18.154A10.583,10.583,0,0,0,36.1,12.617a11.1,11.1,0,0,0-9.371,5.537L1.6,62.024A10.4,10.4,0,0,0,1.6,73.1a10.583,10.583,0,0,0,9.371,5.537H61.227A10.113,10.113,0,0,0,70.6,73.1,10.4,10.4,0,0,0,70.6,62.024ZM67.19,71.395A5.707,5.707,0,0,1,61.653,74.8H10.967A6.646,6.646,0,0,1,5.43,71.395a6.537,6.537,0,0,1,0-6.815L30.56,20.709A5.707,5.707,0,0,1,36.1,17.3a6.8,6.8,0,0,1,5.963,3.407L67.19,64.58A6.537,6.537,0,0,1,67.19,71.395Z" transform="translate(0.001 -12.617)"/></g></g></svg>